{
    "asset" : {
        "generator" : "Khronos glTF Blender I/O v3.2.43",
        "version" : "2.0"
    },
    "scene" : 0,
    "scenes" : [
        {
            "name" : "Scene",
            "nodes" : [
                0
            ]
        }
    ],
    "nodes" : [
        {
            "mesh" : 0,
            "name" : "Icosphere.001"
        }
    ],
    "materials" : [
        {
            "doubleSided" : true,
            "name" : "black",
            "pbrMetallicRoughness" : {
                "baseColorFactor" : [
                    0.07297197729349136,
                    0.07297197729349136,
                    0.07297197729349136,
                    1
                ],
                "metallicFactor" : 0
            }
        },
        {
            "doubleSided" : true,
            "name" : "gray",
            "pbrMetallicRoughness" : {
                "baseColorFactor" : [
                    0.30498063564300537,
                    0.30498063564300537,
                    0.30498063564300537,
                    1
                ],
                "metallicFactor" : 0
            }
        },
        {
            "doubleSided" : true,
            "name" : "Material.001",
            "pbrMetallicRoughness" : {
                "baseColorFactor" : [
                    0.12988516688346863,
                    0.006654407829046249,
                    0.0074238646775484085,
                    1
                ],
                "metallicFactor" : 0,
                "roughnessFactor" : 0.5
            }
        },
        {
            "doubleSided" : true,
            "name" : "brown",
            "pbrMetallicRoughness" : {
                "baseColorFactor" : [
                    0.10548383742570877,
                    0.035800617188215256,
                    0.011321907863020897,
                    1
                ],
                "metallicFactor" : 0,
                "roughnessFactor" : 0.5
            }
        },
        {
            "doubleSided" : true,
            "name" : "darkbrown",
            "pbrMetallicRoughness" : {
                "baseColorFactor" : [
                    0.0341111458837986,
                    0.013883029110729694,
                    0.0031095982994884253,
                    1
                ],
                "metallicFactor" : 0
            }
        }
    ],
    "meshes" : [
        {
            "name" : "Icosphere.002",
            "primitives" : [
                {
                    "attributes" : {
                        "POSITION" : 0,
                        "NORMAL" : 1,
                        "TEXCOORD_0" : 2
                    },
                    "indices" : 3,
                    "material" : 0
                },
                {
                    "attributes" : {
                        "POSITION" : 4,
                        "NORMAL" : 5,
                        "TEXCOORD_0" : 6
                    },
                    "indices" : 7,
                    "material" : 1
                },
                {
                    "attributes" : {
                        "POSITION" : 8,
                        "NORMAL" : 9,
                        "TEXCOORD_0" : 10
                    },
                    "indices" : 11,
                    "material" : 2
                },
                {
                    "attributes" : {
                        "POSITION" : 12,
                        "NORMAL" : 13,
                        "TEXCOORD_0" : 14
                    },
                    "indices" : 15,
                    "material" : 3
                },
                {
                    "attributes" : {
                        "POSITION" : 16,
                        "NORMAL" : 17,
                        "TEXCOORD_0" : 18
                    },
                    "indices" : 19,
                    "material" : 4
                }
            ]
        }
    ],
    "accessors" : [
        {
            "bufferView" : 0,
            "componentType" : 5126,
            "count" : 556,
            "max" : [
                1.086938738822937,
                4.168328762054443,
                1.1428734064102173
            ],
            "min" : [
                -1.0869388580322266,
                1.0529842376708984,
                -2.1416759490966797
            ],
            "type" : "VEC3"
        },
        {
            "bufferView" : 1,
            "componentType" : 5126,
            "count" : 556,
            "type" : "VEC3"
        },
        {
            "bufferView" : 2,
            "componentType" : 5126,
            "count" : 556,
            "type" : "VEC2"
        },
        {
            "bufferView" : 3,
            "componentType" : 5123,
            "count" : 600,
            "type" : "SCALAR"
        },
        {
            "bufferView" : 4,
            "componentType" : 5126,
            "count" : 56,
            "max" : [
                0.7982355952262878,
                2.1368911266326904,
                1.01068115234375
            ],
            "min" : [
                -0.7982355952262878,
                1.9537813663482666,
                -1.096306324005127
            ],
            "type" : "VEC3"
        },
        {
            "bufferView" : 5,
            "componentType" : 5126,
            "count" : 56,
            "type" : "VEC3"
        },
        {
            "bufferView" : 6,
            "componentType" : 5126,
            "count" : 56,
            "type" : "VEC2"
        },
        {
            "bufferView" : 7,
            "componentType" : 5123,
            "count" : 84,
            "type" : "SCALAR"
        },
        {
            "bufferView" : 8,
            "componentType" : 5126,
            "count" : 30,
            "max" : [
                0.9510578513145447,
                1.8747568130493164,
                0.9999999403953552
            ],
            "min" : [
                -0.9510578513145447,
                1.7962889671325684,
                -0.9999999403953552
            ],
            "type" : "VEC3"
        },
        {
            "bufferView" : 9,
            "componentType" : 5126,
            "count" : 30,
            "type" : "VEC3"
        },
        {
            "bufferView" : 10,
            "componentType" : 5126,
            "count" : 30,
            "type" : "VEC2"
        },
        {
            "bufferView" : 11,
            "componentType" : 5123,
            "count" : 30,
            "type" : "SCALAR"
        },
        {
            "bufferView" : 12,
            "componentType" : 5126,
            "count" : 96,
            "max" : [
                0.9724487662315369,
                1.340118169784546,
                0.8861167430877686
            ],
            "min" : [
                -0.972449004650116,
                0.08405408263206482,
                -0.8861170411109924
            ],
            "type" : "VEC3"
        },
        {
            "bufferView" : 13,
            "componentType" : 5126,
            "count" : 96,
            "type" : "VEC3"
        },
        {
            "bufferView" : 14,
            "componentType" : 5126,
            "count" : 96,
            "type" : "VEC2"
        },
        {
            "bufferView" : 15,
            "componentType" : 5123,
            "count" : 144,
            "type" : "SCALAR"
        },
        {
            "bufferView" : 16,
            "componentType" : 5126,
            "count" : 132,
            "max" : [
                0.6569921374320984,
                2.257880210876465,
                0.2940269112586975
            ],
            "min" : [
                -0.7209202647209167,
                1.9619393348693848,
                -0.45405134558677673
            ],
            "type" : "VEC3"
        },
        {
            "bufferView" : 17,
            "componentType" : 5126,
            "count" : 132,
            "type" : "VEC3"
        },
        {
            "bufferView" : 18,
            "componentType" : 5126,
            "count" : 132,
            "type" : "VEC2"
        },
        {
            "bufferView" : 19,
            "componentType" : 5123,
            "count" : 132,
            "type" : "SCALAR"
        }
    ],
    "bufferViews" : [
        {
            "buffer" : 0,
            "byteLength" : 6672,
            "byteOffset" : 0
        },
        {
            "buffer" : 0,
            "byteLength" : 6672,
            "byteOffset" : 6672
        },
        {
            "buffer" : 0,
            "byteLength" : 4448,
            "byteOffset" : 13344
        },
        {
            "buffer" : 0,
            "byteLength" : 1200,
            "byteOffset" : 17792
        },
        {
            "buffer" : 0,
            "byteLength" : 672,
            "byteOffset" : 18992
        },
        {
            "buffer" : 0,
            "byteLength" : 672,
            "byteOffset" : 19664
        },
        {
            "buffer" : 0,
            "byteLength" : 448,
            "byteOffset" : 20336
        },
        {
            "buffer" : 0,
            "byteLength" : 168,
            "byteOffset" : 20784
        },
        {
            "buffer" : 0,
            "byteLength" : 360,
            "byteOffset" : 20952
        },
        {
            "buffer" : 0,
            "byteLength" : 360,
            "byteOffset" : 21312
        },
        {
            "buffer" : 0,
            "byteLength" : 240,
            "byteOffset" : 21672
        },
        {
            "buffer" : 0,
            "byteLength" : 60,
            "byteOffset" : 21912
        },
        {
            "buffer" : 0,
            "byteLength" : 1152,
            "byteOffset" : 21972
        },
        {
            "buffer" : 0,
            "byteLength" : 1152,
            "byteOffset" : 23124
        },
        {
            "buffer" : 0,
            "byteLength" : 768,
            "byteOffset" : 24276
        },
        {
            "buffer" : 0,
            "byteLength" : 288,
            "byteOffset" : 25044
        },
        {
            "buffer" : 0,
            "byteLength" : 1584,
            "byteOffset" : 25332
        },
        {
            "buffer" : 0,
            "byteLength" : 1584,
            "byteOffset" : 26916
        },
        {
            "buffer" : 0,
            "byteLength" : 1056,
            "byteOffset" : 28500
        },
        {
            "buffer" : 0,
            "byteLength" : 264,
            "byteOffset" : 29556
        }
    ],
    "buffers" : [
        {
            "byteLength" : 29820,
            "uri" : "data:application/octet-stream;base64,"
        }
    ]
}
