{
    "asset" : {
        "generator" : "Khronos glTF Blender I/O v3.2.43",
        "version" : "2.0"
    },
    "scene" : 0,
    "scenes" : [
        {
            "name" : "Scene",
            "nodes" : [
                0
            ]
        }
    ],
    "nodes" : [
        {
            "mesh" : 0,
            "name" : "Cylinder.001"
        }
    ],
    "materials" : [
        {
            "doubleSided" : true,
            "name" : "Material.001",
            "pbrMetallicRoughness" : {
                "baseColorFactor" : [
                    0.8000000715255737,
                    0.5231409072875977,
                    0.0649145096540451,
                    1
                ],
                "metallicFactor" : 0
            }
        },
        {
            "doubleSided" : true,
            "name" : "Material.002",
            "pbrMetallicRoughness" : {
                "baseColorFactor" : [
                    0.04928278177976608,
                    0.04928278177976608,
                    0.04928278177976608,
                    1
                ],
                "metallicFactor" : 0
            }
        },
        {
            "doubleSided" : true,
            "name" : "Material.003",
            "pbrMetallicRoughness" : {
                "baseColorFactor" : [
                    0.00477623799815774,
                    0.00477623799815774,
                    0.00477623799815774,
                    1
                ],
                "metallicFactor" : 0,
                "roughnessFactor" : 0.5
            }
        },
        {
            "doubleSided" : true,
            "name" : "Material.004",
            "pbrMetallicRoughness" : {
                "baseColorFactor" : [
                    0.5516334772109985,
                    0.8000000715255737,
                    0.7179509401321411,
                    1
                ],
                "metallicFactor" : 0
            }
        }
    ],
    "meshes" : [
        {
            "name" : "Cylinder.001",
            "primitives" : [
                {
                    "attributes" : {
                        "POSITION" : 0,
                        "NORMAL" : 1,
                        "TEXCOORD_0" : 2
                    },
                    "indices" : 3,
                    "material" : 0
                },
                {
                    "attributes" : {
                        "POSITION" : 4,
                        "NORMAL" : 5,
                        "TEXCOORD_0" : 6
                    },
                    "indices" : 7,
                    "material" : 1
                },
                {
                    "attributes" : {
                        "POSITION" : 8,
                        "NORMAL" : 9,
                        "TEXCOORD_0" : 10
                    },
                    "indices" : 11,
                    "material" : 2
                },
                {
                    "attributes" : {
                        "POSITION" : 12,
                        "NORMAL" : 13,
                        "TEXCOORD_0" : 14
                    },
                    "indices" : 15,
                    "material" : 3
                }
            ]
        }
    ],
    "accessors" : [
        {
            "bufferView" : 0,
            "componentType" : 5126,
            "count" : 72,
            "max" : [
                0.9991767406463623,
                1.1537498235702515,
                1.4735177755355835
            ],
            "min" : [
                -0.9991765022277832,
                -1.1537498235702515,
                -2.160968780517578
            ],
            "type" : "VEC3"
        },
        {
            "bufferView" : 1,
            "componentType" : 5126,
            "count" : 72,
            "type" : "VEC3"
        },
        {
            "bufferView" : 2,
            "componentType" : 5126,
            "count" : 72,
            "type" : "VEC2"
        },
        {
            "bufferView" : 3,
            "componentType" : 5123,
            "count" : 102,
            "type" : "SCALAR"
        },
        {
            "bufferView" : 4,
            "componentType" : 5126,
            "count" : 72,
            "max" : [
                0.9991767406463623,
                1.1537498235702515,
                1.4735177755355835
            ],
            "min" : [
                -0.9991765022277832,
                -1.1537498235702515,
                -1.4688081741333008
            ],
            "type" : "VEC3"
        },
        {
            "bufferView" : 5,
            "componentType" : 5126,
            "count" : 72,
            "type" : "VEC3"
        },
        {
            "bufferView" : 6,
            "componentType" : 5126,
            "count" : 72,
            "type" : "VEC2"
        },
        {
            "bufferView" : 7,
            "componentType" : 5123,
            "count" : 108,
            "type" : "SCALAR"
        },
        {
            "bufferView" : 8,
            "componentType" : 5126,
            "count" : 260,
            "max" : [
                0.5195722579956055,
                1.128296971321106,
                1.9781543016433716
            ],
            "min" : [
                -0.5195722579956055,
                -0.09784533083438873,
                1.2171962261199951
            ],
            "type" : "VEC3"
        },
        {
            "bufferView" : 9,
            "componentType" : 5126,
            "count" : 260,
            "type" : "VEC3"
        },
        {
            "bufferView" : 10,
            "componentType" : 5126,
            "count" : 260,
            "type" : "VEC2"
        },
        {
            "bufferView" : 11,
            "componentType" : 5123,
            "count" : 336,
            "type" : "SCALAR"
        },
        {
            "bufferView" : 12,
            "componentType" : 5126,
            "count" : 16,
            "max" : [
                2.303593873977661,
                0,
                0.4552340805530548
            ],
            "min" : [
                -2.303593873977661,
                0,
                -0.4552333950996399
            ],
            "type" : "VEC3"
        },
        {
            "bufferView" : 13,
            "componentType" : 5126,
            "count" : 16,
            "type" : "VEC3"
        },
        {
            "bufferView" : 14,
            "componentType" : 5126,
            "count" : 16,
            "type" : "VEC2"
        },
        {
            "bufferView" : 15,
            "componentType" : 5123,
            "count" : 36,
            "type" : "SCALAR"
        }
    ],
    "bufferViews" : [
        {
            "buffer" : 0,
            "byteLength" : 864,
            "byteOffset" : 0
        },
        {
            "buffer" : 0,
            "byteLength" : 864,
            "byteOffset" : 864
        },
        {
            "buffer" : 0,
            "byteLength" : 576,
            "byteOffset" : 1728
        },
        {
            "buffer" : 0,
            "byteLength" : 204,
            "byteOffset" : 2304
        },
        {
            "buffer" : 0,
            "byteLength" : 864,
            "byteOffset" : 2508
        },
        {
            "buffer" : 0,
            "byteLength" : 864,
            "byteOffset" : 3372
        },
        {
            "buffer" : 0,
            "byteLength" : 576,
            "byteOffset" : 4236
        },
        {
            "buffer" : 0,
            "byteLength" : 216,
            "byteOffset" : 4812
        },
        {
            "buffer" : 0,
            "byteLength" : 3120,
            "byteOffset" : 5028
        },
        {
            "buffer" : 0,
            "byteLength" : 3120,
            "byteOffset" : 8148
        },
        {
            "buffer" : 0,
            "byteLength" : 2080,
            "byteOffset" : 11268
        },
        {
            "buffer" : 0,
            "byteLength" : 672,
            "byteOffset" : 13348
        },
        {
            "buffer" : 0,
            "byteLength" : 192,
            "byteOffset" : 14020
        },
        {
            "buffer" : 0,
            "byteLength" : 192,
            "byteOffset" : 14212
        },
        {
            "buffer" : 0,
            "byteLength" : 128,
            "byteOffset" : 14404
        },
        {
            "buffer" : 0,
            "byteLength" : 72,
            "byteOffset" : 14532
        }
    ],
    "buffers" : [
        {
            "byteLength" : 14604,
            "uri" : "data:application/octet-stream;base64,"
        }
    ]
}
