{
    "asset" : {
        "generator" : "Khronos glTF Blender I/O v3.2.43",
        "version" : "2.0"
    },
    "scene" : 0,
    "scenes" : [
        {
            "name" : "Scene",
            "nodes" : [
                0
            ]
        }
    ],
    "nodes" : [
        {
            "mesh" : 0,
            "name" : "Cube.001",
            "scale" : [
                0.10496845841407776,
                0.2729523181915283,
                0.10496845841407776
            ]
        }
    ],
    "materials" : [
        {
            "doubleSided" : true,
            "name" : "tige",
            "pbrMetallicRoughness" : {
                "baseColorFactor" : [
                    0.21879439055919647,
                    0.5543003082275391,
                    0.17658205330371857,
                    1
                ],
                "metallicFactor" : 0
            }
        },
        {
            "doubleSided" : true,
            "name" : "yellow",
            "pbrMetallicRoughness" : {
                "baseColorFactor" : [
                    0.8000000715255737,
                    0.6788586378097534,
                    0.23396287858486176,
                    1
                ],
                "metallicFactor" : 0
            }
        },
        {
            "doubleSided" : true,
            "name" : "red",
            "pbrMetallicRoughness" : {
                "baseColorFactor" : [
                    0.8000000715255737,
                    0.16348426043987274,
                    0.1078227311372757,
                    1
                ],
                "metallicFactor" : 0
            }
        }
    ],
    "meshes" : [
        {
            "name" : "Cube.010",
            "primitives" : [
                {
                    "attributes" : {
                        "POSITION" : 0,
                        "NORMAL" : 1,
                        "TEXCOORD_0" : 2
                    },
                    "indices" : 3,
                    "material" : 0
                },
                {
                    "attributes" : {
                        "POSITION" : 4,
                        "NORMAL" : 5,
                        "TEXCOORD_0" : 6
                    },
                    "indices" : 7,
                    "material" : 1
                },
                {
                    "attributes" : {
                        "POSITION" : 8,
                        "NORMAL" : 9,
                        "TEXCOORD_0" : 10
                    },
                    "indices" : 11,
                    "material" : 2
                }
            ]
        }
    ],
    "accessors" : [
        {
            "bufferView" : 0,
            "componentType" : 5126,
            "count" : 40,
            "max" : [
                2.8980207443237305,
                7.0501389503479,
                1.0000001192092896
            ],
            "min" : [
                -1.0000001192092896,
                -1,
                -1.0000003576278687
            ],
            "type" : "VEC3"
        },
        {
            "bufferView" : 1,
            "componentType" : 5126,
            "count" : 40,
            "type" : "VEC3"
        },
        {
            "bufferView" : 2,
            "componentType" : 5126,
            "count" : 40,
            "type" : "VEC2"
        },
        {
            "bufferView" : 3,
            "componentType" : 5123,
            "count" : 60,
            "type" : "SCALAR"
        },
        {
            "bufferView" : 4,
            "componentType" : 5126,
            "count" : 36,
            "max" : [
                4.7418928146362305,
                7.700741767883301,
                3.0588433742523193
            ],
            "min" : [
                -0.7365115284919739,
                6.61746072769165,
                -3.058842897415161
            ],
            "type" : "VEC3"
        },
        {
            "bufferView" : 5,
            "componentType" : 5126,
            "count" : 36,
            "type" : "VEC3"
        },
        {
            "bufferView" : 6,
            "componentType" : 5126,
            "count" : 36,
            "type" : "VEC2"
        },
        {
            "bufferView" : 7,
            "componentType" : 5123,
            "count" : 60,
            "type" : "SCALAR"
        },
        {
            "bufferView" : 8,
            "componentType" : 5126,
            "count" : 512,
            "max" : [
                11.113815307617188,
                8.530757904052734,
                9.25141716003418
            ],
            "min" : [
                -6.979145526885986,
                6.457090377807617,
                -9.231877326965332
            ],
            "type" : "VEC3"
        },
        {
            "bufferView" : 9,
            "componentType" : 5126,
            "count" : 512,
            "type" : "VEC3"
        },
        {
            "bufferView" : 10,
            "componentType" : 5126,
            "count" : 512,
            "type" : "VEC2"
        },
        {
            "bufferView" : 11,
            "componentType" : 5123,
            "count" : 768,
            "type" : "SCALAR"
        }
    ],
    "bufferViews" : [
        {
            "buffer" : 0,
            "byteLength" : 480,
            "byteOffset" : 0
        },
        {
            "buffer" : 0,
            "byteLength" : 480,
            "byteOffset" : 480
        },
        {
            "buffer" : 0,
            "byteLength" : 320,
            "byteOffset" : 960
        },
        {
            "buffer" : 0,
            "byteLength" : 120,
            "byteOffset" : 1280
        },
        {
            "buffer" : 0,
            "byteLength" : 432,
            "byteOffset" : 1400
        },
        {
            "buffer" : 0,
            "byteLength" : 432,
            "byteOffset" : 1832
        },
        {
            "buffer" : 0,
            "byteLength" : 288,
            "byteOffset" : 2264
        },
        {
            "buffer" : 0,
            "byteLength" : 120,
            "byteOffset" : 2552
        },
        {
            "buffer" : 0,
            "byteLength" : 6144,
            "byteOffset" : 2672
        },
        {
            "buffer" : 0,
            "byteLength" : 6144,
            "byteOffset" : 8816
        },
        {
            "buffer" : 0,
            "byteLength" : 4096,
            "byteOffset" : 14960
        },
        {
            "buffer" : 0,
            "byteLength" : 1536,
            "byteOffset" : 19056
        }
    ],
    "buffers" : [
        {
            "byteLength" : 20592,
            "uri" : "data:application/octet-stream;base64,"
        }
    ]
}
